<svg xmlns="http://www.w3.org/2000/svg" width="1024" height="1024" viewBox="0.0 0.0 1024.0 1024.0"><g id="others"><path id="10" d="M 0,512 C 0,512 0,0 0,0 C 0,0 512,0 512,0 C 512,0 1024,0 1024,0 C 1024,0 1024,512 1024,512 C 1024,512 1024,1024 1024,1024 C 1024,1024 512,1024 512,1024 C 512,1024 0,1024 0,1024 C 0,1024 0,512 0,512M 520.388,872.125 C 526.665,865.869 535.739,856.865 540.551,852.117 C 540.551,852.117 549.301,843.485 549.301,843.485 C 549.301,843.485 552.275,843.021 552.275,843.021 C 553.912,842.766 557.837,842.197 561,841.755 C 570.051,840.492 584.951,837.589 594.500,835.228 C 633.077,825.689 668.484,809.711 701.742,786.830 C 710.605,780.732 723.177,770.990 731.383,763.860 C 739.420,756.875 756.728,739.539 763.191,732 C 796.850,692.734 823.106,644.322 835.732,598.250 C 837.695,591.087 840.854,577.556 841.798,572.266 C 842.095,570.605 843.456,568.867 850.201,561.543 C 866.360,543.997 878.870,530.562 886.673,522.375 C 891.063,517.769 894.977,513.541 895.370,512.980 C 896.044,512.018 895.476,511.339 885.418,501.082 C 874.336,489.781 849.815,464.161 844.967,458.817 C 844.967,458.817 842.184,455.750 842.184,455.750 C 842.184,455.750 841.551,450.750 841.551,450.750 C 838.173,424.081 824.875,385.455 808.685,355.290 C 781.773,305.149 744.458,263.321 697.500,230.659 C 669.992,211.525 643.880,198.415 612.500,187.982 C 592.961,181.486 570.313,176.295 552.331,174.193 C 552.331,174.193 549.412,173.852 549.412,173.852 C 549.412,173.852 542.093,166.301 542.093,166.301 C 527.794,151.548 511.229,134.910 509.832,133.898 C 509.832,133.898 508.414,132.871 508.414,132.871 C 508.414,132.871 488.060,153.354 488.060,153.354 C 488.060,153.354 467.707,173.837 467.707,173.837 C 467.707,173.837 463.978,174.179 463.978,174.179 C 461.928,174.368 457.100,174.976 453.250,175.530 C 428.283,179.125 407.048,184.508 385.250,192.768 C 355.005,204.227 321.689,224.169 291.252,249.033 C 283.430,255.423 263.055,275.444 256.176,283.500 C 222.052,323.466 200.948,359.985 186.046,404.854 C 180.575,421.327 177.155,435.317 174.134,453.598 C 174.134,453.598 173.250,458.945 173.250,458.945 C 173.250,458.945 162.500,470.575 162.500,470.575 C 156.588,476.972 145.619,488.813 138.125,496.891 C 130.631,504.969 124.500,511.856 124.500,512.198 C 124.500,512.830 126.647,515.165 148.463,538.254 C 155.221,545.406 163.749,554.454 167.415,558.360 C 167.415,558.360 174.078,565.462 174.078,565.462 C 174.078,565.462 175.262,574.181 175.262,574.181 C 177.874,593.441 186.555,622.654 196.173,644.552 C 208.897,673.521 226.548,702.391 245.511,725.250 C 253.493,734.870 256.977,738.632 269,750.601 C 301.534,782.988 336.462,806.174 376.750,822.130 C 403.996,832.920 429.793,839.077 461,842.237 C 461,842.237 467.750,842.921 467.750,842.921 C 467.750,842.921 488.197,863.211 488.197,863.211 C 499.443,874.370 508.719,883.500 508.810,883.500 C 508.901,883.500 514.111,878.381 520.388,872.125" stroke="#E7E7E7" fill="#E7E7E7" stroke-width="1" />
  <path id="10" d="M 496.111,824.976 C 496.111,824.976 483.973,813.500 483.973,813.500 C 483.973,813.500 480.861,813.499 480.861,813.499 C 473.450,813.495 454.613,811.251 440.750,808.721 C 414.406,803.913 393.558,796.994 369.250,784.990 C 345.204,773.115 324.259,759.091 302.500,740.293 C 295.173,733.963 278.892,717.895 272.696,710.880 C 248.786,683.807 231.036,654.636 217.288,619.826 C 209.517,600.146 201,570.318 201,562.783 C 201,561.120 199.724,559.635 195.881,556.826 C 193.149,554.828 192.725,553.780 193.897,551.928 C 194.425,551.094 200.018,545.087 206.325,538.581 C 212.631,532.073 220.464,523.987 223.730,520.610 C 223.730,520.610 229.667,514.470 229.667,514.470 C 229.667,514.470 223.458,508.553 223.458,508.553 C 220.044,505.298 212.349,497.559 206.357,491.353 C 206.357,491.353 195.465,480.072 195.465,480.072 C 195.465,480.072 196.440,477.161 196.440,477.161 C 196.976,475.560 198.565,468.850 199.971,462.250 C 208.652,421.505 221.692,386.894 239.906,356.250 C 260.841,321.029 285.866,292.154 317,267.294 C 358.320,234.301 404.211,213.917 456.084,205.518 C 465.936,203.922 476.160,202.822 488.467,202.033 C 494.827,201.625 496.327,201.381 497.002,200.644 C 497.451,200.152 499.582,197.774 501.736,195.358 C 503.889,192.944 505.813,191.031 506.010,191.108 C 506.207,191.186 511.616,196.375 518.032,202.639 C 518.032,202.639 529.696,214.029 529.696,214.029 C 529.696,214.029 533.116,210.639 533.116,210.639 C 534.997,208.775 537.034,206.520 537.643,205.629 C 539.005,203.633 539.673,203.601 550.500,205.025 C 573.572,208.059 592.971,212.992 616.250,221.744 C 658.236,237.530 697.149,263.351 731.284,298.077 C 764.731,332.103 788.995,371.753 804.671,418 C 810.200,434.310 814.157,449.945 814.795,458 C 814.795,458 815.131,462.250 815.131,462.250 C 815.131,462.250 822.191,469.389 822.191,469.389 C 826.073,473.316 829.310,476.702 829.383,476.914 C 829.456,477.126 820.489,486.461 809.455,497.659 C 791.455,515.928 789.462,518.108 790.066,518.885 C 791.480,520.706 797.740,527.332 811.125,541.174 C 818.756,549.067 825,555.828 825,556.201 C 825,556.573 823.818,557.792 822.375,558.907 C 817.730,562.496 816.766,563.851 815.548,568.500 C 805.096,608.374 790.779,641.789 771.631,671 C 745.626,710.670 717.179,739.484 678.500,765.330 C 644.158,788.279 601.703,804.534 559.250,810.989 C 550.655,812.296 539.650,813.487 536.113,813.495 C 536.113,813.495 533.476,813.500 533.476,813.500 C 533.476,813.500 527.363,819.390 527.363,819.390 C 514.862,831.434 509.364,836.499 508.815,836.476 C 508.504,836.463 502.788,831.288 496.111,824.976M 509.688,765.625 C 510.406,763.169 512.548,745.568 513.718,732.500 C 515.461,713.048 515.750,703.684 515.739,667 C 515.729,631.620 515.377,617.206 513.720,584.250 C 513.319,576.275 512.659,562.775 512.255,554.250 C 511.265,533.394 510.442,519.294 510.200,519.042 C 509.582,518.396 509.226,520.900 507.950,534.864 C 505.308,563.771 504.313,582.116 503.523,616.500 C 502.601,656.597 502.368,693.686 502.961,706 C 504.240,732.601 506.270,755.717 508.062,764.070 C 508.596,766.562 509.236,767.173 509.688,765.625M 476.824,668.125 C 476.649,660.769 476.360,620.598 476.180,578.856 C 476.180,578.856 475.853,502.963 475.853,502.963 C 475.853,502.963 462.801,491.548 462.801,491.548 C 455.623,485.269 444.575,475.494 438.250,469.824 C 438.250,469.824 426.750,459.514 426.750,459.514 C 426.750,459.514 404.286,459.507 404.286,459.507 C 404.286,459.507 381.822,459.500 381.822,459.500 C 381.822,459.500 385.286,461.887 385.286,461.887 C 388.974,464.429 389.497,464.842 404.829,477.332 C 414.103,484.888 430.589,498.691 444.144,510.250 C 444.144,510.250 450.008,515.250 450.008,515.250 C 450.008,515.250 449.922,580.005 449.922,580.005 C 449.851,632.979 449.957,644.986 450.500,646.005 C 450.865,646.690 451.990,648.375 452.999,649.750 C 454.009,651.125 458.861,657.987 463.784,665 C 472.704,677.707 475.656,681.500 476.629,681.500 C 476.974,681.500 477.038,677.132 476.824,668.125M 545.606,676.125 C 547.648,673.443 552.934,666.188 557.355,660 C 561.774,653.812 565.978,648.205 566.696,647.538 C 566.696,647.538 568,646.326 568,646.326 C 568,646.326 568,627.788 568,627.788 C 568,617.592 567.755,588.100 567.456,562.250 C 567.456,562.250 566.912,515.250 566.912,515.250 C 566.912,515.250 569.056,513.500 569.056,513.500 C 570.235,512.538 579.199,505.103 588.975,496.981 C 619.663,471.481 632.801,460.929 634.822,460.153 C 635.195,460.010 635.500,459.748 635.500,459.572 C 635.500,459.394 624.869,459.310 611.875,459.384 C 611.875,459.384 588.250,459.518 588.250,459.518 C 588.250,459.518 582.500,465.173 582.500,465.173 C 574.788,472.755 558.431,488.203 549.367,496.464 C 549.367,496.464 542,503.178 542,503.178 C 542,503.178 541.940,553.963 541.940,553.963 C 541.907,581.896 541.733,621.737 541.554,642.500 C 541.253,677.591 541.268,681 541.726,681 C 541.818,681 543.563,678.807 545.606,676.125M 517.500,477.674 C 527.340,471.368 537.476,465.152 546.678,459.781 C 549.388,458.200 551.413,456.739 551.178,456.536 C 550.942,456.332 547.263,454.174 543,451.740 C 536.471,448.012 514.064,434.825 510.729,432.749 C 509.820,432.183 508.993,432.538 503.229,435.957 C 489.396,444.166 481.005,449.050 475.028,452.373 C 471.606,454.275 468.729,456.062 468.635,456.344 C 468.541,456.626 471.341,458.611 474.857,460.755 C 478.373,462.899 485.863,467.472 491.500,470.918 C 507.295,480.571 509.711,481.999 510.250,482 C 510.525,482 513.788,480.053 517.500,477.674M 473.920,422.177 C 484.276,412.942 496.012,402.404 500,398.757 C 503.988,395.111 507.979,391.519 508.870,390.774 C 508.870,390.774 510.488,389.421 510.488,389.421 C 510.488,389.421 516.625,395.086 516.625,395.086 C 520,398.201 528.044,405.475 534.503,411.250 C 540.962,417.025 550.454,425.632 555.597,430.375 C 555.597,430.375 564.950,439 564.950,439 C 564.950,439 585.350,438.990 585.350,438.990 C 585.350,438.990 605.750,438.981 605.750,438.981 C 605.750,438.981 601.005,434.615 601.005,434.615 C 594.961,429.055 589.230,423.642 571.250,406.507 C 563.275,398.907 551.913,388.106 546,382.505 C 540.087,376.904 529.562,366.905 522.611,360.286 C 515.659,353.666 509.751,348.175 509.483,348.082 C 508.904,347.884 496.868,359.351 460.250,394.986 C 445.400,409.438 429.144,425.161 424.125,429.926 C 419.106,434.692 415,438.740 415,438.921 C 415,439.101 424.019,439.187 435.044,439.108 C 435.044,439.108 455.089,438.967 455.089,438.967 C 455.089,438.967 473.920,422.177 473.920,422.177M 634.002,376.250 C 631.800,355.412 628.089,338.812 621.931,322.256 C 618.399,312.760 614.097,302.485 613.311,301.665 C 613.003,301.343 610.837,300.096 608.500,298.894 C 604.873,297.029 594.428,290.664 577.750,280.156 C 563.212,270.997 525.747,250.003 510.941,242.720 C 510.941,242.720 507.132,240.846 507.132,240.846 C 507.132,240.846 495.941,246.748 495.941,246.748 C 481.209,254.517 459.555,266.553 450.500,272.007 C 431.797,283.270 405.303,298.472 400.881,300.477 C 400.881,300.477 397.659,301.938 397.659,301.938 C 397.659,301.938 396.100,306.344 396.100,306.344 C 392.341,316.965 388.057,331.288 385.061,343.250 C 381.570,357.190 377.116,385.500 378.414,385.500 C 379.223,385.500 379.892,384.358 384.464,375.202 C 394.260,355.575 404.635,341.351 418.805,328.115 C 431.216,316.524 454.238,301.132 476.250,289.708 C 484.969,285.183 506.111,275.500 507.272,275.500 C 509.387,275.500 542.895,292.248 554.500,299.106 C 574.764,311.079 586.909,320.305 599.515,333.305 C 612.144,346.328 618.056,355.053 628.102,375.500 C 630.602,380.587 633.009,385.170 633.449,385.683 C 634.204,386.562 634.260,386.476 634.417,384.183 C 634.508,382.845 634.322,379.275 634.002,376.250" stroke="#E7E7E7" fill="#E7E7E7" stroke-width="1" />
  <path id="264" d="M 606.933,831.231 C 607.858,830.829 609.096,830.517 609.683,830.538 C 610.475,830.567 610.298,830.750 609,831.250 C 606.552,832.192 604.755,832.176 606.933,831.231" stroke="#262E30" fill="#262E30" stroke-width="1" />
  <path id="264" d="M 476.298,165.577 C 476.154,165.344 476.696,164.520 477.503,163.747 C 478.784,162.520 479.012,162.449 479.296,163.189 C 479.866,164.674 477.101,166.876 476.298,165.577" stroke="#262E30" fill="#262E30" stroke-width="1" />
  </g><g id="geometric"><path id="571" d="M 488.197,863.211 C 488.197,863.211 467.750,842.921 467.750,842.921 C 467.750,842.921 461,842.237 461,842.237 C 429.793,839.077 403.996,832.920 376.750,822.130 C 336.462,806.174 301.534,782.988 269,750.601 C 256.977,738.632 253.493,734.870 245.511,725.250 C 226.548,702.391 208.897,673.521 196.173,644.552 C 186.555,622.654 177.874,593.441 175.262,574.181 C 175.262,574.181 174.078,565.462 174.078,565.462 C 174.078,565.462 167.415,558.360 167.415,558.360 C 163.749,554.454 155.221,545.406 148.463,538.254 C 126.647,515.165 124.500,512.830 124.500,512.198 C 124.500,511.856 130.631,504.969 138.125,496.891 C 145.619,488.813 156.588,476.972 162.500,470.575 C 162.500,470.575 173.250,458.945 173.250,458.945 C 173.250,458.945 174.134,453.598 174.134,453.598 C 179.820,419.198 189.725,389.184 206,357.038 C 218.712,331.930 234.174,309.269 256.176,283.500 C 263.055,275.444 283.430,255.423 291.252,249.033 C 321.689,224.169 355.005,204.227 385.250,192.768 C 407.055,184.506 428.180,179.151 453.295,175.519 C 457.169,174.959 462.070,174.355 464.186,174.175 C 464.186,174.175 468.033,173.851 468.033,173.851 C 468.033,173.851 471.983,169.678 471.983,169.678 C 474.764,166.740 476.170,165.596 476.735,165.814 C 477.873,166.250 479.625,164.529 479.301,163.292 C 479.095,162.505 482.130,159.212 493.757,147.605 C 493.757,147.605 508.474,132.913 508.474,132.913 C 508.474,132.913 509.862,133.919 509.862,133.919 C 511.234,134.913 527.909,151.666 542.093,166.301 C 542.093,166.301 549.412,173.852 549.412,173.852 C 549.412,173.852 552.331,174.193 552.331,174.193 C 561.407,175.254 577.177,178.218 588.500,180.991 C 609.758,186.196 635.927,195.731 654.693,205.107 C 694.096,224.793 732.492,254.425 761.788,287.757 C 792.761,322.998 815.675,362.354 830.474,405.733 C 835.583,420.709 840.040,438.823 841.551,450.750 C 841.551,450.750 842.184,455.750 842.184,455.750 C 842.184,455.750 844.967,458.817 844.967,458.817 C 849.815,464.161 874.336,489.781 885.418,501.082 C 895.476,511.339 896.044,512.018 895.370,512.980 C 894.977,513.541 891.063,517.769 886.673,522.375 C 878.870,530.562 866.360,543.997 850.201,561.543 C 843.456,568.867 842.095,570.605 841.798,572.266 C 840.854,577.556 837.695,591.087 835.732,598.250 C 823.106,644.322 796.850,692.734 763.191,732 C 756.728,739.539 739.420,756.875 731.383,763.860 C 723.177,770.990 710.605,780.732 701.742,786.830 C 689.260,795.417 681.615,800.016 665.500,808.633 C 656.616,813.383 636.159,822.387 633.396,822.763 C 632.043,822.947 628.415,823.870 627,824.390 C 626.587,824.542 624.817,825.134 623.065,825.707 C 621.313,826.280 619.903,826.975 619.930,827.250 C 619.994,827.897 612.260,830.500 610.273,830.500 C 609.435,830.500 607.538,830.961 606.056,831.524 C 604.321,832.183 602.844,832.435 601.910,832.230 C 601.030,832.037 600.160,832.159 599.700,832.542 C 599.283,832.888 598.375,833.231 597.683,833.306 C 596.991,833.379 596.115,833.698 595.735,834.013 C 595.355,834.328 594.859,834.471 594.631,834.331 C 594.150,834.034 588.447,834.989 582.797,836.313 C 580.138,836.937 578.775,837.502 578.634,838.040 C 578.417,838.870 572.604,840.097 561,841.760 C 558.112,842.173 554.306,842.725 552.539,842.985 C 552.539,842.985 549.328,843.457 549.328,843.457 C 549.328,843.457 540.564,852.104 540.564,852.104 C 535.744,856.860 526.665,865.869 520.388,872.125 C 514.111,878.381 508.901,883.500 508.810,883.500 C 508.719,883.500 499.443,874.370 488.197,863.211M 515.314,830.890 C 518.579,827.804 524,822.630 527.363,819.390 C 527.363,819.390 533.476,813.500 533.476,813.500 C 533.476,813.500 536.113,813.495 536.113,813.495 C 539.650,813.487 550.655,812.296 559.250,810.989 C 601.703,804.534 644.158,788.279 678.500,765.330 C 712.553,742.575 738.643,717.506 761.843,685.250 C 787.212,649.979 803.436,614.712 815.548,568.500 C 816.766,563.851 817.730,562.496 822.375,558.907 C 823.818,557.792 825,556.573 825,556.201 C 825,555.828 818.756,549.067 811.125,541.174 C 797.740,527.332 791.480,520.706 790.066,518.885 C 789.462,518.108 791.455,515.928 809.455,497.659 C 820.489,486.461 829.456,477.126 829.383,476.914 C 829.310,476.702 826.073,473.316 822.191,469.389 C 822.191,469.389 815.131,462.250 815.131,462.250 C 815.131,462.250 814.795,458 814.795,458 C 813.678,443.904 803.547,411.606 792.522,387 C 778.360,355.390 756.688,323.922 731.284,298.077 C 697.149,263.351 658.236,237.530 616.250,221.744 C 592.971,212.992 573.572,208.059 550.500,205.025 C 539.673,203.601 539.005,203.633 537.643,205.629 C 537.034,206.520 534.997,208.775 533.116,210.639 C 533.116,210.639 529.696,214.029 529.696,214.029 C 529.696,214.029 518.032,202.639 518.032,202.639 C 511.616,196.375 506.207,191.186 506.010,191.108 C 505.813,191.031 503.889,192.944 501.736,195.358 C 499.582,197.774 497.451,200.152 497.002,200.644 C 496.327,201.381 494.827,201.625 488.467,202.033 C 458.923,203.927 434.283,208.587 408.435,217.167 C 364.476,231.759 324.050,257.207 289.250,292.195 C 270.373,311.175 254.286,332.058 239.906,356.250 C 221.692,386.894 208.652,421.505 199.971,462.250 C 198.565,468.850 196.976,475.560 196.440,477.161 C 196.440,477.161 195.465,480.072 195.465,480.072 C 195.465,480.072 206.357,491.353 206.357,491.353 C 212.349,497.559 220.044,505.298 223.458,508.553 C 223.458,508.553 229.667,514.470 229.667,514.470 C 229.667,514.470 223.730,520.610 223.730,520.610 C 220.464,523.987 212.631,532.073 206.325,538.581 C 200.018,545.087 194.425,551.094 193.897,551.928 C 192.725,553.780 193.149,554.828 195.881,556.826 C 199.724,559.635 201,561.120 201,562.783 C 201,570.318 209.517,600.146 217.288,619.826 C 228.987,649.449 243.249,674.428 261.856,697.880 C 270.262,708.476 276.786,715.676 287.565,726.254 C 313.582,751.784 338.962,770.034 369.250,784.990 C 393.558,796.994 414.406,803.913 440.750,808.721 C 454.613,811.251 473.450,813.495 480.861,813.499 C 480.861,813.499 483.973,813.500 483.973,813.500 C 483.973,813.500 496.111,824.976 496.111,824.976 C 502.788,831.288 508.504,836.463 508.815,836.476 C 509.125,836.489 512.050,833.976 515.314,830.890" stroke="#222222" fill="#222222" stroke-width="1" />
  <path id="381" d="M 578.597,837.959 C 578.927,836.969 593.548,833.662 594.631,834.332 C 594.858,834.471 595.355,834.328 595.735,834.013 C 596.115,833.698 596.957,833.383 597.609,833.313 C 598.260,833.244 599.120,832.977 599.521,832.721 C 600.154,832.316 606.277,831.890 605.889,832.278 C 605.552,832.615 583.521,837.910 581.065,838.245 C 578.961,838.532 578.427,838.470 578.597,837.959" stroke="#2E312D" fill="#2E312D" stroke-width="1" />
  <path id="381" d="M 619.755,827.508 C 619.410,826.950 619.661,826.817 623,825.778 C 624.513,825.308 626.087,824.791 626.500,824.630 C 628.010,824.041 633.731,822.565 633.890,822.724 C 633.981,822.814 633.086,823.226 631.902,823.639 C 630.718,824.053 627.562,825.191 624.888,826.169 C 622.214,827.147 619.904,827.750 619.755,827.508" stroke="#2E312D" fill="#2E312D" stroke-width="1" />
  </g><g id="circle"><path id="257" d="M 415,438.921 C 415,438.740 419.106,434.692 424.125,429.926 C 429.144,425.161 445.400,409.438 460.250,394.986 C 496.868,359.351 508.904,347.884 509.483,348.082 C 509.751,348.175 515.659,353.666 522.611,360.286 C 529.562,366.905 540.087,376.904 546,382.505 C 551.913,388.106 563.275,398.907 571.250,406.507 C 589.230,423.642 594.961,429.055 601.005,434.615 C 601.005,434.615 605.750,438.981 605.750,438.981 C 605.750,438.981 585.350,438.990 585.350,438.990 C 585.350,438.990 564.950,439 564.950,439 C 564.950,439 555.597,430.375 555.597,430.375 C 550.454,425.632 540.962,417.025 534.503,411.250 C 528.044,405.475 520,398.201 516.625,395.086 C 516.625,395.086 510.488,389.421 510.488,389.421 C 510.488,389.421 508.870,390.774 508.870,390.774 C 507.979,391.519 503.988,395.111 500,398.757 C 496.012,402.404 484.276,412.942 473.920,422.177 C 473.920,422.177 455.089,438.967 455.089,438.967 C 455.089,438.967 435.044,439.108 435.044,439.108 C 424.019,439.187 415,439.101 415,438.921" stroke="#030303" fill="#030303" stroke-width="1" />
  <path id="257" d="M 508.216,764.745 C 508.009,763.638 508.113,762.717 508.498,762.253 C 508.988,761.663 508.914,761.188 508.125,759.850 C 506.947,757.854 506.038,751.843 506.029,746 C 506.025,743.663 505.775,740.513 505.473,739 C 505.171,737.487 504.452,730.288 503.873,723 C 502.935,711.155 502.827,706.039 502.868,674.750 C 502.949,611.422 504.267,575.164 507.950,534.864 C 509.226,520.900 509.582,518.396 510.200,519.042 C 510.442,519.294 511.265,533.394 512.255,554.250 C 512.659,562.775 513.319,576.275 513.720,584.250 C 515.377,617.206 515.729,631.620 515.739,667 C 515.750,703.684 515.461,713.048 513.718,732.500 C 512.548,745.568 510.406,763.169 509.688,765.625 C 509.272,767.048 508.570,766.628 508.216,764.745" stroke="#030303" fill="#030303" stroke-width="1" />
  <path id="257" d="M 474.425,679.625 C 473.495,678.594 468.707,672.013 463.784,665 C 458.861,657.987 454.009,651.125 452.999,649.750 C 451.990,648.375 450.865,646.690 450.500,646.005 C 449.957,644.986 449.851,632.979 449.922,580.005 C 449.922,580.005 450.008,515.250 450.008,515.250 C 450.008,515.250 444.144,510.250 444.144,510.250 C 430.589,498.691 414.103,484.888 404.829,477.332 C 389.497,464.842 388.974,464.429 385.286,461.887 C 385.286,461.887 381.822,459.500 381.822,459.500 C 381.822,459.500 404.286,459.507 404.286,459.507 C 404.286,459.507 426.750,459.514 426.750,459.514 C 426.750,459.514 438.250,469.824 438.250,469.824 C 444.575,475.494 455.623,485.269 462.801,491.548 C 462.801,491.548 475.853,502.963 475.853,502.963 C 475.853,502.963 476.180,578.856 476.180,578.856 C 476.360,620.598 476.649,660.769 476.824,668.125 C 477.038,677.132 476.974,681.500 476.629,681.500 C 476.347,681.500 475.355,680.656 474.425,679.625" stroke="#030303" fill="#030303" stroke-width="1" />
  <path id="257" d="M 505.750,479.591 C 503.550,478.266 497.137,474.363 491.500,470.918 C 485.863,467.472 478.373,462.899 474.857,460.755 C 471.341,458.611 468.541,456.626 468.635,456.344 C 468.729,456.062 471.606,454.275 475.028,452.373 C 481.005,449.050 489.396,444.166 503.229,435.957 C 508.993,432.538 509.820,432.183 510.729,432.749 C 514.064,434.825 536.471,448.012 543,451.740 C 547.263,454.174 550.942,456.332 551.178,456.536 C 551.413,456.739 549.388,458.200 546.678,459.781 C 537.476,465.152 527.340,471.368 517.500,477.674 C 513.788,480.053 510.525,482 510.250,482 C 509.975,482 507.950,480.915 505.750,479.591" stroke="#030303" fill="#030303" stroke-width="1" />
  <path id="257" d="M 541.394,680.625 C 541.304,680.419 541.375,663.263 541.554,642.500 C 541.733,621.737 541.907,581.896 541.940,553.963 C 541.940,553.963 542,503.178 542,503.178 C 542,503.178 549.367,496.464 549.367,496.464 C 558.431,488.203 574.788,472.755 582.500,465.173 C 582.500,465.173 588.250,459.518 588.250,459.518 C 588.250,459.518 611.875,459.384 611.875,459.384 C 624.869,459.310 635.500,459.394 635.500,459.572 C 635.500,459.748 635.195,460.010 634.822,460.153 C 632.811,460.925 618.872,472.115 590.500,495.736 C 581.562,503.176 572.584,510.608 570.548,512.251 C 570.548,512.251 566.845,515.238 566.845,515.238 C 566.845,515.238 567.143,533.880 567.143,533.880 C 567.328,545.489 567.264,552.413 566.971,552.232 C 566.687,552.057 566.500,554.219 566.500,557.679 C 566.500,561.096 566.705,563.485 567.005,563.585 C 567.336,563.696 567.622,577.942 567.837,604.896 C 567.837,604.896 568.165,646.039 568.165,646.039 C 568.165,646.039 566.386,647.894 566.386,647.894 C 565.409,648.915 560.838,655.038 556.231,661.500 C 548.306,672.617 542.067,681 541.717,681 C 541.630,681 541.485,680.831 541.394,680.625" stroke="#030303" fill="#030303" stroke-width="1" />
  <path id="368" d="M 566.500,557.721 C 566.500,553.995 566.678,552.051 567,552.250 C 567.284,552.426 567.500,554.922 567.500,558.029 C 567.500,561.343 567.303,563.500 567,563.500 C 566.696,563.500 566.500,561.240 566.500,557.721" stroke="#14120D" fill="#14120D" stroke-width="1" />
  <path id="309" d="M 507.375,760.625 C 507.247,759.594 507.206,758.673 507.284,758.578 C 507.596,758.202 509.021,761.562 508.741,762.014 C 508.135,762.994 507.603,762.453 507.375,760.625" stroke="#14171C" fill="#14171C" stroke-width="1" />
  <path id="309" d="M 505.248,742.885 C 505.050,740.246 505.008,737.786 505.154,737.418 C 505.301,737.051 505.450,737.312 505.486,738 C 505.522,738.688 505.734,740.825 505.957,742.750 C 506.181,744.675 506.193,746.572 505.986,746.967 C 505.774,747.367 505.449,745.564 505.248,742.885" stroke="#14171C" fill="#14171C" stroke-width="1" />
  <path id="257" d="M 633.449,385.683 C 633.009,385.170 630.602,380.587 628.102,375.500 C 618.056,355.053 612.144,346.328 599.515,333.305 C 586.909,320.305 574.764,311.079 554.500,299.106 C 542.895,292.248 509.387,275.500 507.272,275.500 C 506.111,275.500 484.969,285.183 476.250,289.708 C 460.444,297.911 445.910,306.945 432.743,316.750 C 411.027,332.922 397.229,349.627 384.464,375.202 C 377.217,389.719 377.072,389.581 379.807,370.750 C 382.837,349.898 388.226,328.592 396.100,306.344 C 396.100,306.344 397.659,301.938 397.659,301.938 C 397.659,301.938 400.881,300.477 400.881,300.477 C 405.303,298.472 431.797,283.270 450.500,272.007 C 459.555,266.553 481.209,254.517 495.941,246.748 C 495.941,246.748 507.132,240.846 507.132,240.846 C 507.132,240.846 510.941,242.720 510.941,242.720 C 525.747,250.003 563.212,270.997 577.750,280.156 C 594.428,290.664 604.873,297.029 608.500,298.894 C 610.837,300.096 613.003,301.343 613.311,301.665 C 614.097,302.485 618.399,312.760 621.931,322.256 C 625.156,330.926 628.798,343.640 630.452,352 C 632.572,362.709 634.702,380.010 634.417,384.183 C 634.260,386.476 634.204,386.562 633.449,385.683" stroke="#030303" fill="#030303" stroke-width="1" />
</g></svg>